<svg viewBox="0 0 2067 229" fill="none" xmlns="http://www.w3.org/2000/svg">
    <path d="M2 117.562H572.407C588.976 117.562 602.407 130.993 602.407 147.562V196.594C602.407 213.162 615.839 226.594 632.407 226.594H825.497C842.065 226.594 855.497 213.162 855.497 196.594V99.9715C855.497 83.403 868.928 69.9715 885.497 69.9715H1132.54C1149.11 69.9715 1162.54 83.4029 1162.54 99.9715V196.594C1162.54 213.162 1175.97 226.594 1192.54 226.594H1362.56C1379.13 226.594 1392.56 213.162 1392.56 196.594V70.1387C1392.56 53.5701 1405.99 40.1387 1422.56 40.1387H2065" stroke="currentColor" strokeWidth="3" strokeLinecap="round" stroke-dasharray="12 12" />
    <path d="M1890.57 11.8425C1889.95 6.09464 1885.81 0.390625 1878.51 0.390625C1871.21 0.390625 1867 6.09464 1866.49 11.8425C1865.57 20.6179 1871.83 28.7132 1878.51 35.9749C1885.21 28.7132 1891.49 20.6837 1890.57 11.8425ZM1878.51 18.2047C1877.21 18.196 1875.94 17.8207 1874.87 17.126C1873.79 16.4313 1872.95 15.4484 1872.46 14.3011C1871.97 13.1539 1871.85 11.8937 1872.1 10.6795C1872.36 9.46531 1872.99 8.35143 1873.92 7.47832C1874.84 6.60522 1876.01 6.01198 1877.29 5.77342C1878.56 5.53485 1879.89 5.66164 1881.09 6.1378C1882.29 6.61396 1883.31 7.41816 1884.03 8.44901C1884.75 9.47986 1885.14 10.6912 1885.14 11.9303C1885.14 12.7596 1884.98 13.5818 1884.65 14.3486C1884.31 15.1154 1883.83 15.8114 1883.21 16.3958C1882.59 16.9802 1881.86 17.4412 1881.05 17.7518C1880.24 18.0624 1879.38 18.2164 1878.51 18.2047V18.2047Z" fill="currentColor" />
    <path d="M266.255 87.7253C265.662 81.9774 261.713 76.2734 254.759 76.2734C247.804 76.2734 243.79 81.9774 243.307 87.7253C242.429 96.5007 248.397 104.596 254.759 111.858C261.143 104.596 267.132 96.5666 266.255 87.7253ZM254.759 94.0875C253.52 94.0788 252.311 93.7035 251.285 93.0088C250.259 92.3141 249.462 91.3312 248.993 90.1839C248.525 89.0367 248.407 87.7765 248.654 86.5623C248.901 85.3481 249.502 84.2342 250.381 83.3611C251.261 82.488 252.379 81.8948 253.595 81.6562C254.811 81.4177 256.07 81.5445 257.214 82.0206C258.358 82.4968 259.335 83.301 260.023 84.3318C260.71 85.3627 261.077 86.574 261.077 87.8131C261.083 88.6424 260.923 89.4646 260.607 90.2314C260.291 90.9982 259.825 91.6942 259.237 92.2786C258.649 92.863 257.949 93.324 257.18 93.6346C256.411 93.9452 255.588 94.0992 254.759 94.0875V94.0875Z" fill="currentColor" />
</svg>