<svg viewBox="0 0 19 22" fill="none" xmlns="http://www.w3.org/2000/svg">
    <path d="M18.139 17.1447C17.8185 17.8919 17.4225 18.6043 16.9572 19.271C16.3356 20.1588 15.8252 20.7723 15.4339 21.1137C14.8263 21.6716 14.1734 21.9587 13.4755 21.9749C12.9754 21.9749 12.3712 21.8325 11.6675 21.5432C10.9614 21.2549 10.3132 21.1137 9.71943 21.1137C9.09785 21.1137 8.43114 21.2549 7.71697 21.5432C7.00396 21.8325 6.42753 21.9842 5.98653 21.9981C5.31866 22.027 4.65079 21.733 3.98523 21.1137C3.56043 20.7433 3.02915 20.1067 2.39137 19.2062C1.70845 18.2466 1.14707 17.1297 0.707225 15.8599C0.236128 14.486 0 13.1572 0 11.87C0 10.3966 0.318309 9.12448 0.956085 8.05959C1.43847 7.22326 2.1281 6.52526 2.95854 6.03283C3.77742 5.54167 4.71223 5.2772 5.66706 5.26657C6.19951 5.26657 6.89747 5.43093 7.76211 5.75503C8.62676 6.07913 9.18235 6.24349 9.42427 6.24349C9.60715 6.24349 10.2218 6.05019 11.2681 5.66706C12.2555 5.31171 13.0889 5.16471 13.7718 5.22259C15.6238 5.3719 17.0139 6.10112 17.9387 7.41602C16.2835 8.41957 15.4652 9.8236 15.4814 11.6258C15.4953 13.0298 16.0057 14.1977 17.0058 15.1249C17.4479 15.548 17.9638 15.8866 18.5279 16.1238C18.4052 16.4792 18.2756 16.8183 18.139 17.1447ZM13.8945 0.441003C13.8945 1.54062 13.4917 2.56847 12.6919 3.51876C11.7242 4.64847 10.5551 5.30245 9.28768 5.19944C9.2711 5.06116 9.26299 4.922 9.26338 4.78274C9.26338 3.72595 9.72174 2.59625 10.5401 1.67141C10.9475 1.20379 11.4661 0.813714 12.0946 0.503507C12.7219 0.19793 13.3146 0.0289372 13.8725 0C13.8875 0.148158 13.8945 0.29516 13.8945 0.441003Z" fill="#F68E20" />
</svg>