<svg width="265" height="561" viewBox="0 0 265 561" fill="none" xmlns="http://www.w3.org/2000/svg">
<path opacity="0.8" d="M32.0934 144.21C36.6574 148.142 44.0164 155.401 43.8395 161.248C43.8395 161.517 43.8041 161.786 43.8041 162.088C43.1673 168.742 37.1527 172.539 29.9706 172.506C21.1257 172.472 15.8541 166.86 16.2786 160.475C16.6324 155.031 23.5315 148.142 27.7417 144.479C28.5554 143.773 28.697 143.572 29.723 143.269C30.9259 143.269 31.1028 143.37 32.0934 144.21ZM79.5377 23.0636C73.7708 14.4271 65.8811 9.41995 57.1423 5.55535C48.1205 1.9596 37.8249 0.380156 30.0414 0.447367C14.4389 0.447367 4.85097 4.88325 1.34837 6.26106C-17.6152 15.6369 -28.5122 29.7511 -27.9815 53.7452C-25.4695 81.3686 6.33693 112.89 27.1402 132.314C27.7417 132.852 28.7323 133.826 29.3338 134.028L30.5013 134.062C31.2443 133.826 31.1382 133.893 31.7396 133.356C50.2432 116.822 81.519 84.3595 86.8967 60.8695C89.3733 47.6962 87.9935 36.5057 79.5377 23.0636ZM28.2016 118.704C18.2953 101.532 5.13401 74.782 3.68344 55.1902C2.48053 39.2277 7.71674 11.1002 28.2016 9.25192V118.704ZM78.4056 60.9367C72.6033 80.0244 51.057 103.951 36.339 118.166C46.1746 100.725 59.4066 73.3706 60.1142 53.678C60.6803 38.2532 56.647 18.1237 43.1319 9.52076C74.5492 15.6705 83.9956 42.4874 78.4056 60.9367Z" fill="currentColor"/>
<path opacity="0.6" d="M250.059 552.5C251.279 553.555 253.246 555.503 253.198 557.073C253.198 557.145 253.189 557.217 253.189 557.299C253.019 559.085 251.412 560.104 249.492 560.095C247.128 560.086 245.72 558.579 245.833 556.866C245.928 555.404 247.771 553.555 248.896 552.572C249.114 552.382 249.152 552.328 249.426 552.247C249.747 552.247 249.795 552.274 250.059 552.5ZM262.739 519.981C261.197 517.663 259.089 516.319 256.754 515.282C254.343 514.317 251.591 513.893 249.511 513.911C245.341 513.911 242.779 515.101 241.843 515.471C236.775 517.988 233.863 521.776 234.005 528.217C234.676 535.632 243.176 544.093 248.736 549.307C248.896 549.451 249.161 549.712 249.322 549.767L249.634 549.776C249.833 549.712 249.804 549.73 249.965 549.586C254.91 545.148 263.268 536.434 264.705 530.129C265.367 526.593 264.998 523.59 262.739 519.981ZM249.019 545.653C246.372 541.044 242.855 533.864 242.467 528.605C242.146 524.32 243.545 516.77 249.019 516.274V545.653ZM262.436 530.147C260.885 535.271 255.127 541.693 251.194 545.509C253.823 540.827 257.359 533.485 257.548 528.199C257.699 524.059 256.621 518.655 253.009 516.346C261.405 517.997 263.93 525.195 262.436 530.147Z" fill="currentColor"/>
</svg>
