<svg width="548" height="180" viewBox="0 0 548 180" fill="none" xmlns="http://www.w3.org/2000/svg">
<path d="M42.1007 134.32C43.6607 134.32 44.9607 135.36 46.0007 137.44C47.0407 139.52 47.5607 141.42 47.5607 143.14C47.5607 144.86 47.2207 147.42 46.5407 150.82C45.9007 154.18 44.8607 157.44 43.4207 160.6C42.0207 163.72 40.5007 165.28 38.8607 165.28C37.5407 165.28 36.8807 164.38 36.8807 162.58C36.8807 160.78 37.4007 157.84 38.4407 153.76C39.4807 149.68 40.0007 147 40.0007 145.72C40.0007 144.44 39.8007 143.8 39.4007 143.8C38.5607 143.8 37.5607 144.72 36.4007 146.56C35.2407 148.4 33.8407 150.86 32.2007 153.94C30.6007 157.02 29.6007 159 29.2007 159.88C28.8007 160.76 28.4607 161.46 28.1807 161.98C27.9407 162.5 27.6607 163.04 27.3407 163.6C26.0607 165.72 24.3607 165.72 22.2407 163.6C21.1607 162.52 20.6207 161.54 20.6207 160.66C20.6207 160.5 20.9407 158.98 21.5807 156.1C22.2607 153.18 22.6007 149.86 22.6007 146.14C22.6007 144.58 22.4207 143.8 22.0607 143.8C21.5807 143.8 21.0207 144.28 20.3807 145.24C19.7407 146.2 18.7607 147.94 17.4407 150.46C16.1207 152.98 14.9807 155.06 14.0207 156.7C10.6607 162.42 8.1007 165.28 6.3407 165.28C5.4607 165.28 4.3607 164.54 3.0407 163.06C1.7607 161.58 1.1207 160.46 1.1207 159.7C1.1207 158.9 1.5607 157.02 2.4407 154.06C3.3607 151.06 3.9407 147.88 4.1807 144.52C4.4607 141.16 4.7007 138.54 4.9007 136.66C5.1407 134.78 5.6207 133.84 6.3407 133.84C7.8607 133.84 9.3207 134.48 10.7207 135.76C12.1607 137 12.8807 138.14 12.8807 139.18C12.8807 141.54 12.0207 145.66 10.3007 151.54C13.1007 144.86 15.4607 140.34 17.3807 137.98C19.4207 135.54 21.3807 134.32 23.2607 134.32C24.3007 134.32 25.5807 135.28 27.1007 137.2C28.6607 139.12 29.4407 140.92 29.4407 142.6C29.4407 144.24 29.4207 145.68 29.3807 146.92C30.6207 143.8 32.5007 140.92 35.0207 138.28C37.5407 135.64 39.9007 134.32 42.1007 134.32ZM59.3409 159.16C61.5009 158.2 63.3809 156.26 64.9809 153.34C66.5809 150.42 67.3809 147.68 67.3809 145.12C67.3809 142.56 67.0209 140.8 66.3009 139.84C64.5809 140.84 62.8609 142.94 61.1409 146.14C59.4609 149.34 58.6209 152.16 58.6209 154.6C58.6209 157 58.8609 158.52 59.3409 159.16ZM50.5809 155.2C50.5809 150.2 52.1209 145.46 55.2009 140.98C58.3209 136.5 61.4009 134.26 64.4409 134.26C67.4809 134.26 70.0409 135.34 72.1209 137.5C74.2009 139.62 75.2409 142.2 75.2409 145.24C75.2409 148.24 74.5209 151.3 73.0809 154.42C71.6409 157.54 69.6209 160.14 67.0209 162.22C64.4209 164.26 61.6409 165.28 58.6809 165.28C56.4809 165.28 54.5809 164.3 52.9809 162.34C51.3809 160.38 50.5809 158 50.5809 155.2ZM81.5441 144.46L81.1841 137.68C81.1841 135.44 81.8841 134.32 83.2841 134.32C84.0841 134.32 84.8641 134.62 85.6241 135.22C86.4241 135.82 87.0241 136.76 87.4241 138.04C88.7841 136.84 90.2641 135.88 91.8641 135.16C93.5041 134.4 94.9441 134.02 96.1841 134.02C99.1041 134.02 100.564 134.72 100.564 136.12C100.564 136.84 100.424 137.38 100.144 137.74C99.9041 138.06 99.7041 138.3 99.5441 138.46C99.4241 138.62 99.1841 138.84 98.8241 139.12C98.5041 139.36 98.2641 139.54 98.1041 139.66C97.1841 140.26 96.5241 140.68 96.1241 140.92C94.3241 142.04 92.7841 143.4 91.5041 145C90.2241 146.56 89.2641 148.74 88.6241 151.54C87.5441 156.14 86.4841 159.58 85.4441 161.86C84.4441 164.1 83.3041 165.22 82.0241 165.22C80.7841 165.22 79.8441 164.62 79.2041 163.42C78.6041 162.22 78.3041 161.1 78.3041 160.06C78.3041 158.98 78.6841 157.38 79.4441 155.26C80.2441 153.14 80.7841 151.32 81.0641 149.8C81.3841 148.24 81.5441 146.46 81.5441 144.46ZM126.862 145.54C126.862 147.5 125.522 149.26 122.842 150.82C120.202 152.38 117.482 153.16 114.682 153.16C111.882 153.16 109.582 152.96 107.782 152.56C107.422 153.64 107.242 154.72 107.242 155.8C107.242 156.88 107.422 157.66 107.782 158.14C108.142 158.58 109.042 158.8 110.482 158.8C113.482 158.8 116.042 158.52 118.162 157.96C120.322 157.4 121.442 157.12 121.522 157.12C123.162 157.12 123.982 157.66 123.982 158.74C123.982 160.3 122.682 161.78 120.082 163.18C117.522 164.58 114.542 165.28 111.142 165.28C107.782 165.28 105.082 164.22 103.042 162.1C101.002 159.98 99.9824 157.48 99.9824 154.6C99.9824 151.68 100.822 148.64 102.502 145.48C104.222 142.32 106.362 139.68 108.922 137.56C111.482 135.4 114.022 134.32 116.542 134.32C119.102 134.32 121.462 135.58 123.622 138.1C125.782 140.58 126.862 143.06 126.862 145.54ZM119.902 144.58C119.902 144.18 119.482 143.6 118.642 142.84C117.802 142.08 117.002 141.7 116.242 141.7C115.522 141.7 114.582 142.24 113.422 143.32C112.262 144.36 111.162 145.72 110.122 147.4C110.482 147.44 111.002 147.46 111.682 147.46C117.162 147.46 119.902 146.5 119.902 144.58Z" fill="#F68E20"/>
<path d="M512.738 28C487.359 33.607 443.738 113.895 323.738 101.895C221.743 77.4731 221.098 70.0198 129.247 154.5" stroke="#F68E20" strokeWidth="4" strokeLinecap="round" stroke-dasharray="12 12"/>
<path d="M522.273 43.499L525.878 41.8895L527.943 24.2942L537.856 19.8681C539.352 19.2001 539.978 17.5243 539.257 16.1163C538.537 14.7082 536.747 14.1108 535.251 14.7787L525.338 19.2048L509.379 9.65699L505.774 11.2665L517.227 22.8262L507.313 27.2523L502.873 25.0666L500.169 26.2737L505.011 31.4065L506.248 38.1488L508.952 36.9417L509.918 32.3417L519.832 27.9156L522.273 43.499Z" fill="#F68E20"/>
</svg>
