<svg width="873" height="703" viewBox="0 0 873 703" fill="none" xmlns="http://www.w3.org/2000/svg">
    <path opacity="0.7" d="M698.285 39.6328C671.204 52.5827 651.26 81.4139 635.553 105.931C599.578 162.087 578.346 224.075 549.561 283.727C531.316 321.537 511.448 358.496 491.767 395.567C459.898 455.597 431.387 519.371 389.834 573.556C337.084 642.341 252.775 664.354 170.124 672.194" stroke="#F68E20" strokeWidth="3" strokeLinecap="round" stroke-dasharray="10 10" />
    <path d="M158.914 666.298C158.371 661.129 154.611 656 147.988 656C141.365 656 137.542 661.129 137.082 666.298C136.246 674.19 141.929 681.47 147.988 688C154.067 681.47 159.771 674.249 158.914 666.298ZM147.988 672.02C146.808 672.016 145.655 671.682 144.676 671.061C143.697 670.439 142.934 669.558 142.484 668.527C142.035 667.497 141.918 666.364 142.149 665.272C142.381 664.179 142.949 663.175 143.784 662.388C144.618 661.6 145.681 661.063 146.838 660.844C147.995 660.626 149.195 660.736 150.286 661.161C151.377 661.585 152.31 662.305 152.968 663.23C153.626 664.155 153.98 665.243 153.984 666.358C153.987 667.102 153.833 667.839 153.533 668.527C153.233 669.216 152.791 669.841 152.234 670.367C151.676 670.893 151.014 671.31 150.286 671.594C149.557 671.878 148.776 672.022 147.988 672.02Z" fill="#FFB185" />
    <path d="M710.2 53.7666L713.75 52.0395L715.235 34.3857L724.998 29.6361C726.471 28.9193 727.042 27.2239 726.275 25.8403C725.508 24.4567 723.7 23.9184 722.227 24.6351L712.464 29.3848L696.2 20.3667L692.65 22.0938L704.477 33.2708L694.714 38.0204L690.204 35.9818L687.542 37.2772L692.55 42.2481L694.008 48.9461L696.67 47.6507L697.485 43.0214L707.248 38.2718L710.2 53.7666Z" fill="#FFB185" />
</svg>